<svg width="20" height="20" viewBox="0 0 20 20" fill="none" xmlns="http://www.w3.org/2000/svg">
<g clip-path="url(#clip0)">
<path d="M19.9607 3.80812C19.2121 4.13719 18.4193 4.35451 17.6075 4.45312C18.4632 3.93956 19.1038 3.13334 19.4107 2.18375C18.6013 2.65312 17.7205 2.98651 16.8032 3.17062C16.1863 2.51153 15.3692 2.07445 14.4785 1.92718C13.5879 1.77992 12.6736 1.9307 11.8774 2.35614C11.0812 2.78159 10.4477 3.4579 10.0752 4.28015C9.70259 5.10241 9.61181 6.02463 9.8169 6.90375C6.40878 6.74437 3.38753 5.10687 1.3669 2.63312C0.999077 3.25868 0.806701 3.97182 0.810029 4.6975C0.809528 5.3721 0.975619 6.03639 1.29355 6.63137C1.61149 7.22635 2.07143 7.73362 2.63253 8.10812C1.98229 8.08847 1.34622 7.91338 0.777529 7.5975V7.64687C0.777331 8.59376 1.10454 9.51159 1.70369 10.2448C2.30284 10.978 3.13708 11.4815 4.06503 11.67C3.71353 11.7639 3.35136 11.812 2.98753 11.8131C2.7244 11.8131 2.47315 11.7875 2.22253 11.7412C2.48661 12.5561 2.99816 13.2683 3.68597 13.7788C4.37379 14.2893 5.20364 14.5726 6.06003 14.5894C4.60904 15.7257 2.81865 16.3422 0.975654 16.34C0.64922 16.3413 0.323005 16.3229 -0.0012207 16.285C1.87884 17.4897 4.06526 18.1292 6.29815 18.1275C13.84 18.1275 17.9613 11.8806 17.9613 6.47062C17.9613 6.29812 17.9613 6.1225 17.9482 5.94625C18.7543 5.36846 19.4491 4.64934 19.9988 3.82375L19.9607 3.80812Z" fill="#DA802D"/>
</g>
<defs>
<clipPath id="clip0">
<rect width="20" height="20" fill="white"/>
</clipPath>
</defs>
</svg>
